<svg width="0" height="0" class="hidden">
  <symbol viewBox="0 0 32 20" xmlns="http://www.w3.org/2000/svg" id="menu-icon">
    <path d="M1.247 0a1.212 1.212 0 0 0-.88.36A1.251 1.251 0 0 0 0 1.25a1.268 1.268 0 0 0 .366.89 1.228 1.228 0 0 0 .88.36h29.507a1.211 1.211 0 0 0 .88-.36A1.25 1.25 0 0 0 32 1.25a1.268 1.268 0 0 0-.366-.89 1.228 1.228 0 0 0-.88-.36H1.246zm0 8.75a1.212 1.212 0 0 0-.88.36A1.251 1.251 0 0 0 0 10a1.268 1.268 0 0 0 .366.89 1.229 1.229 0 0 0 .88.36h29.507a1.214 1.214 0 0 0 .88-.36A1.25 1.25 0 0 0 32 10a1.268 1.268 0 0 0-.366-.89 1.228 1.228 0 0 0-.88-.36H1.246zm0 8.75a1.214 1.214 0 0 0-.88.36 1.251 1.251 0 0 0-.367.89 1.269 1.269 0 0 0 .366.89 1.227 1.227 0 0 0 .88.36h29.507a1.212 1.212 0 0 0 .88-.36 1.25 1.25 0 0 0 .367-.89 1.268 1.268 0 0 0-.366-.89 1.228 1.228 0 0 0-.88-.36H1.246z"/>
  </symbol>
</svg>
